# xmcd CD database file
#
# Track frame offsets:
#	182
#	13605
#	27875
#	49355
#	84112
#	97302
#	127562
#	140315
#	178105
#	191855
#
# Disc length: 2592 seconds
#
# Revision: 0
# Processed by: cddbd v1.5PL3 Copyright (c) Steve Scherf et al.
# Submitted via: CDex 1.50
#
DISCID=7e0a1e0a
DTITLE=Petr Pinos - Angel
DYEAR=1992
DGENRE=New Age
TTITLE0=Angel
TTITLE1=Child's Dream
TTITLE2=Mama
TTITLE3=Egypt
TTITLE4=The Message
TTITLE5=Canary Islands
TTITLE6=Flamenco Dance
TTITLE7=Song About Flying
TTITLE8=Autumn Sonata
TTITLE9=The Tune
EXTD=YEAR: 1992
EXTT0=
EXTT1=
EXTT2=
EXTT3=
EXTT4=
EXTT5=
EXTT6=
EXTT7=
EXTT8=
EXTT9=
PLAYORDER=
